<?xml version="1.0" encoding="UTF-8" standalone="no"?>
<!-- Created with Inkscape (http://www.inkscape.org/) -->

<svg
   xmlns:dc="http://purl.org/dc/elements/1.1/"
   xmlns:cc="http://creativecommons.org/ns#"
   xmlns:rdf="http://www.w3.org/1999/02/22-rdf-syntax-ns#"
   xmlns:svg="http://www.w3.org/2000/svg"
   xmlns="http://www.w3.org/2000/svg"
   xmlns:sodipodi="http://sodipodi.sourceforge.net/DTD/sodipodi-0.dtd"
   xmlns:inkscape="http://www.inkscape.org/namespaces/inkscape"
   height="33.232338mm"
   width="107.30743mm"
   viewBox="0 0 380.22293 117.75238"
   id="svg2"
   version="1.1"
   inkscape:version="0.92.3 (unknown)"
   sodipodi:docname="catalogIcon-mta_prometheus.svg">
  <defs
     id="defs8">
    <inkscape:perspective
       sodipodi:type="inkscape:persp3d"
       inkscape:vp_x="0 : 526.18109 : 1"
       inkscape:vp_y="0 : 999.99997 : 0"
       inkscape:vp_z="744.0941 : 526.18109 : 1"
       inkscape:persp3d-origin="372.04689 : 350.7874 : 1"
       id="perspective3294" />
  </defs>
  <sodipodi:namedview
     pagecolor="#ffffff"
     bordercolor="#666666"
     borderopacity="1"
     objecttolerance="10"
     gridtolerance="10"
     guidetolerance="10"
     inkscape:pageopacity="0"
     inkscape:pageshadow="2"
     inkscape:window-width="1317"
     inkscape:window-height="750"
     id="namedview6"
     showgrid="false"
     inkscape:snap-text-baseline="false"
     inkscape:zoom="2.5371828"
     inkscape:cx="154.76555"
     inkscape:cy="51.936503"
     inkscape:window-x="49"
     inkscape:window-y="18"
     inkscape:window-maximized="1"
     inkscape:current-layer="svg2"
     fit-margin-top="2"
     fit-margin-left="2"
     fit-margin-right="1"
     fit-margin-bottom="1" />
  <metadata
     id="metadata4">
    <rdf:RDF>
      <cc:Work
         rdf:about="">
        <dc:format>image/svg+xml</dc:format>
        <dc:type
           rdf:resource="http://purl.org/dc/dcmitype/StillImage" />
        <dc:title />
      </cc:Work>
    </rdf:RDF>
  </metadata>
  <flowRoot
     xml:space="preserve"
     id="flowRoot3155"
     style="font-style:normal;font-weight:normal;line-height:0.01%;font-family:sans-serif;letter-spacing:0px;word-spacing:0px;fill:#000000;fill-opacity:1;stroke:none;stroke-width:1px;stroke-linecap:butt;stroke-linejoin:miter;stroke-opacity:1"
     transform="translate(-1.9768936,-0.47732964)"><flowRegion
       id="flowRegion3157"><rect
         id="rect3159"
         width="113.40598"
         height="95.767029"
         x="310.68646"
         y="131.27031" /></flowRegion><flowPara
       id="flowPara3161"
       style="font-size:40px;line-height:1.25"> </flowPara></flowRoot>  <flowRoot
     xml:space="preserve"
     id="flowRoot3163"
     style="font-style:normal;font-weight:normal;line-height:0.01%;font-family:sans-serif;letter-spacing:0px;word-spacing:0px;fill:#000000;fill-opacity:1;stroke:none;stroke-width:1px;stroke-linecap:butt;stroke-linejoin:miter;stroke-opacity:1"
     transform="translate(-1.9768936,-0.47732964)"><flowRegion
       id="flowRegion3165"><rect
         id="rect3167"
         width="192.33932"
         height="136.37173"
         x="268.01379"
         y="108.00768" /></flowRegion><flowPara
       id="flowPara3169"
       style="font-size:40px;line-height:1.25"> </flowPara></flowRoot>  <flowRoot
     xml:space="preserve"
     id="flowRoot3171"
     style="font-style:normal;font-weight:normal;line-height:0.01%;font-family:sans-serif;letter-spacing:0px;word-spacing:0px;fill:#000000;fill-opacity:1;stroke:none;stroke-width:1px;stroke-linecap:butt;stroke-linejoin:miter;stroke-opacity:1"
     transform="translate(-1.9768936,-0.47732964)"><flowRegion
       id="flowRegion3173"><rect
         id="rect3175"
         width="126.12415"
         height="103.26414"
         x="301.90967"
         y="126.13802" /></flowRegion><flowPara
       id="flowPara3177"
       style="font-size:40px;line-height:1.25"> </flowPara></flowRoot>  <flowRoot
     xml:space="preserve"
     id="flowRoot3179"
     style="font-style:normal;font-weight:normal;line-height:0.01%;font-family:sans-serif;letter-spacing:0px;word-spacing:0px;fill:#000000;fill-opacity:1;stroke:none;stroke-width:1px;stroke-linecap:butt;stroke-linejoin:miter;stroke-opacity:1"
     transform="translate(-1.9768936,-0.47732964)"><flowRegion
       id="flowRegion3181"><rect
         id="rect3183"
         width="159.23174"
         height="117.45311"
         x="282.99106"
         y="117.46699" /></flowRegion><flowPara
       id="flowPara3185"
       style="font-size:40px;line-height:1.25"> </flowPara></flowRoot>  <style
     id="style3372"
     type="text/css">
	.st0{fill:#FFFFFF;}
	.st1{clip-path:url(#SVGID_2_);fill:url(#SVGID_3_);}
</style>
  <g
     id="g3454"
     transform="matrix(0.41102997,0,0,0.41102997,-5.2852858,4.5115026)">
    <path
       id="path3456"
       d="m 151.89559,6.1811061 c -70.690091,0 -128.00113,57.3042629 -128.00113,127.9966139 0,70.69009 57.311039,127.99887 128.00113,127.99887 70.69009,0 127.99887,-57.30878 127.99887,-127.99887 0,-70.692351 -57.31104,-127.9966139 -127.99887,-127.9966139 l 0,0 z m 0,239.5602339 c -20.11262,0 -36.41912,-13.43552 -36.41912,-30.00404 l 72.83824,0 c 0,16.56626 -16.3065,30.00404 -36.41912,30.00404 l 0,0 z m 60.15265,-39.94063 -120.312075,0 0,-21.81578 120.314335,0 0,21.81578 -0.002,0 z m -0.43144,-33.04443 -119.537292,0 c -0.397555,-0.45854 -0.804144,-0.91031 -1.188145,-1.37563 -12.315142,-14.95345 -15.21548,-22.75997 -18.032241,-30.71557 -0.04744,-0.26202 14.933126,3.06072 25.556404,5.45056 0,0 5.466364,1.26494 13.458114,2.72189 -7.67325,-8.99466 -12.22931,-20.42886 -12.22931,-32.11605 0,-25.658054 19.67893,-48.079202 12.57942,-66.201797 6.90977,0.562449 14.30066,14.583008 14.79986,36.504955 7.34572,-10.151183 10.41998,-28.689402 10.41998,-40.055836 0,-11.768505 7.75457,-25.438945 15.51139,-25.906523 -6.91428,11.395798 1.79125,21.165239 9.53001,45.400228 2.90259,9.103085 2.53214,24.422472 4.7729,34.137703 0.74316,-20.178133 4.21272,-49.619725 17.01351,-59.784461 -5.64707,12.800791 0.83577,28.818155 5.26985,36.518507 7.15372,12.423566 11.49067,21.836112 11.49067,39.637954 0,11.93566 -4.40698,23.17334 -11.84079,31.95793 8.45255,-1.5857 14.28936,-3.01554 14.28936,-3.01554 l 27.44931,-5.35568 c 0.002,-0.002 -3.98684,16.40136 -19.313,32.19736 l 0,0 z"
       inkscape:connector-curvature="0"
       style="fill:#da4e31" />
  </g>
  <text
     xml:space="preserve"
     style="font-style:normal;font-weight:normal;line-height:0%;font-family:sans-serif;letter-spacing:0px;word-spacing:0px;fill:#000000;fill-opacity:1;stroke:none;stroke-width:1px;stroke-linecap:butt;stroke-linejoin:miter;stroke-opacity:1"
     x="99.216225"
     y="95.456573"
     id="text3477"><tspan
       sodipodi:role="line"
       id="tspan3479"
       x="99.216225"
       y="95.456573"
       style="font-size:40px;line-height:1.25"> </tspan></text>
  <text
     xml:space="preserve"
     style="font-style:normal;font-weight:normal;line-height:0%;font-family:sans-serif;letter-spacing:0px;word-spacing:0px;fill:#800080;fill-opacity:1;stroke:none;stroke-width:1px;stroke-linecap:butt;stroke-linejoin:miter;stroke-opacity:1"
     x="120.76678"
     y="58.533241"
     id="text3481"><tspan
       sodipodi:role="line"
       x="120.76678"
       y="58.533241"
       id="tspan3485"
       style="font-size:40px;line-height:1.25">Prometheus</tspan></text>
</svg>
